<svg version="1.0" xmlns="http://www.w3.org/2000/svg" preserveAspectRatio="xMidYMid meet" viewBox="43.5 149.55 317.9 112.85">

<g transform="translate(0.000000,400.000000) scale(0.100000,-0.100000)" fill="#000000" stroke="none">
<path d="M1970 2498 c-126 -11 -243 -31 -275 -45 -24 -12 -25 -13 -5 -8 137 33 216 39 470 40 204 0 292 -4 384 -18 176 -27 364 -78 516 -139 142 -58 250 -88 322 -88 73 0 89 -8 87 -44 -1 -17 2 -43 6 -58 4 -17 3 -28 -3 -28 -6 0 -12 4 -14 9 -3 9 -238 33 -246 26 -2 -2 10 -11 27 -20 19 -9 31 -23 31 -35 0 -11 3 -20 8 -20 23 1 159 21 173 25 13 5 17 -3 21 -43 3 -28 14 -63 26 -80 24 -33 27 -67 11 -127 -22 -80 -86 -118 -264 -156 -144 -30 -141 -31 -148 46 -6 67 -35 145 -65 178 -33 37 -94 60 -162 61 -78 1 -122 -15 -174 -63 -54 -51 -76 -107 -76 -194 l0 -72 -452 0 c-250 0 -536 -6 -638 -13 -102 -7 -203 -13 -225 -14 l-40 -3 3 70 c4 74 -10 156 -31 182 -37 48 -81 83 -123 97 -53 18 -111 21 -146 7 -13 -5 -32 -12 -42 -15 -10 -4 -17 -9 -14 -11 3 -3 24 2 48 10 54 19 85 19 145 -1 103 -36 155 -133 139 -262 -6 -51 -12 -62 -58 -108 -43 -43 -61 -54 -109 -65 -81 -18 -149 4 -206 66 -52 56 -61 80 -61 158 0 69 23 125 66 165 14 12 21 22 16 22 -18 0 -80 -77 -92 -115 -12 -37 -9 -124 5 -159 8 -18 4 -19 -86 -12 -152 11 -231 38 -202 67 7 7 8 19 3 33 -17 40 -40 178 -34 201 3 13 21 35 39 49 18 14 35 38 38 53 4 19 20 37 48 56 52 33 40 36 -16 4 -22 -13 -58 -49 -82 -82 -24 -33 -51 -71 -60 -85 -13 -17 -18 -42 -18 -85 0 -79 31 -263 47 -283 22 -27 79 -44 200 -62 106 -16 121 -20 155 -50 123 -108 271 -112 416 -11 47 32 -15 26 547 52 141 6 367 9 535 5 l290 -6 23 -25 c89 -97 242 -126 358 -70 45 22 66 40 127 106 9 10 26 19 37 19 41 0 247 54 297 77 65 31 100 65 126 122 27 61 28 168 2 207 -14 21 -21 57 -26 135 -10 153 -20 165 -143 180 -39 5 -89 12 -111 15 -22 3 -100 30 -175 59 -119 47 -232 86 -295 102 -31 7 -108 24 -130 28 -11 2 -30 6 -41 9 -148 32 -523 51 -704 34z m999 -572 c82 -52 115 -129 100 -227 -16 -101 -93 -173 -198 -186 -66 -8 -145 29 -193 90 -30 38 -33 48 -37 124 -2 69 0 88 17 115 31 50 83 95 122 107 55 16 144 5 189 -23z"/>
<path d="M2794 1866 c-49 -22 -74 -65 -74 -130 0 -50 3 -59 35 -90 46 -46 92 -55 153 -30 56 23 82 64 84 128 2 102 -100 165 -198 122z m128 -149 c22 -34 -5 -97 -41 -97 -28 0 -61 30 -61 56 0 36 36 67 68 59 15 -4 30 -12 34 -18z"/>
<path d="M1565 2410 c-33 -15 -56 -29 -52 -29 5 -1 18 4 30 11 12 6 44 19 72 29 27 10 41 18 30 18 -11 0 -47 -13 -80 -29z"/>
<path d="M1990 2403 c-111 -6 -245 -36 -340 -77 -91 -39 -319 -165 -320 -176 0 -3 37 -3 83 1 190 17 398 29 488 29 l96 0 12 43 c7 23 17 52 22 64 9 24 24 124 18 121 -2 -1 -29 -3 -59 -5z m-23 -170 c-3 -19 -11 -29 -31 -34 -39 -11 -232 -11 -220 0 20 18 168 57 232 60 19 1 22 -3 19 -26z"/>
<path d="M2176 2388 c-3 -12 -8 -62 -11 -110 -7 -101 -19 -93 115 -79 47 5 186 12 310 16 215 6 309 19 325 45 7 11 -48 31 -170 65 -55 14 -111 31 -125 36 -56 19 -182 38 -307 44 l-132 7 -5 -24z m342 -140 c30 -5 52 -12 49 -14 -2 -2 -44 -6 -93 -9 -49 -2 -115 -7 -146 -11 -56 -6 -58 -5 -58 18 0 14 3 28 6 31 9 8 173 -2 242 -15z"/>
<path d="M1450 2360 c-8 -5 -10 -10 -5 -10 6 0 17 5 25 10 8 5 11 10 5 10 -5 0 -17 -5 -25 -10z"/>
<path d="M1375 2327 c-28 -12 -66 -31 -85 -43 -53 -31 -89 -41 -194 -54 -53 -7 -94 -15 -92 -18 3 -3 54 1 113 8 77 9 118 19 143 34 19 12 65 36 103 54 37 17 67 34 67 37 0 7 2 7 -55 -18z"/>
<path d="M880 2195 c-73 -17 -32 -18 50 -1 36 8 52 14 35 14 -16 0 -55 -6 -85 -13z"/>
<path d="M775 2174 l-40 -13 40 5 c40 6 52 11 44 18 -2 2 -22 -3 -44 -10z"/>
<path d="M690 2149 c-19 -11 -26 -17 -15 -13 11 3 28 9 38 11 9 3 17 9 17 14 0 11 1 12 -40 -12z"/>
<path d="M2633 2119 c-46 -13 -41 -27 11 -34 34 -5 50 -3 72 11 l27 18 -24 7 c-32 9 -48 9 -86 -2z"/>
<path d="M1905 2075 c-32 -14 -27 -19 33 -29 42 -7 97 23 66 35 -28 11 -65 9 -99 -6z"/>
<path d="M710 2040 c-34 -19 -70 -30 -95 -30 -35 -1 -37 -2 -20 -12 11 -6 24 -17 28 -25 14 -23 56 -14 94 21 21 18 54 43 73 55 l35 21 -30 0 c-16 -1 -55 -14 -85 -30z"/>
<path d="M962 1860 c-50 -31 -74 -76 -69 -133 10 -120 156 -166 242 -77 25 26 29 38 30 88 0 66 -20 101 -73 126 -44 22 -90 20 -130 -4z m123 -134 c21 -15 25 -67 5 -91 -21 -25 -80 -8 -93 28 -8 22 11 65 32 70 29 8 37 7 56 -7z"/>
<path d="M581 1754 c-12 -15 -20 -29 -18 -31 9 -8 37 10 43 29 9 31 -2 32 -25 2z"/>
</g>
</svg>